<svg width="150" height="150" viewBox="0 0 150 150" fill="none" xmlns="http://www.w3.org/2000/svg">
<path d="M14.8547 16.4858H135.164V133.514H14.8547V16.4858Z" fill="#1C0A00"/>
<path d="M14.8547 16.4859H135.164V133.514H14.8547V16.4859ZM9.375 138.984H140.625V11.0156H9.375V138.984ZM95.3438 56.625C95.3438 56.1891 95.5078 55.9688 96 55.9688H104.588C105.023 55.9688 105.244 56.1328 105.244 56.625V99.7734C105.244 100.209 105.136 100.43 104.588 100.43H96.1172C95.5687 100.43 95.4047 100.158 95.4047 99.7172V56.625H95.3484H95.3438ZM94.7437 44.2125C94.7437 42.7331 95.3314 41.3143 96.3775 40.2682C97.4236 39.2221 98.8425 38.6344 100.322 38.6344C101.801 38.6344 103.22 39.2221 104.266 40.2682C105.312 41.3143 105.9 42.7331 105.9 44.2125C105.954 44.9682 105.843 45.7267 105.575 46.4353C105.307 47.144 104.888 47.7858 104.347 48.3164C103.806 48.847 103.156 49.2537 102.443 49.5082C101.729 49.7628 100.969 49.8591 100.214 49.7906C99.4748 49.837 98.7341 49.7235 98.0426 49.458C97.3511 49.1924 96.7249 48.7809 96.2067 48.2516C95.6885 47.7223 95.2905 47.0875 95.0396 46.3905C94.7888 45.6935 94.6911 44.9507 94.7531 44.2125H94.7437ZM70.1344 74.6203C68.6016 68.5266 64.9781 55.3172 63.6281 48.9188H63.5203C62.3719 55.3172 59.475 66.1453 57.1781 74.6203H70.1344ZM54.9328 83.4797L50.6109 99.8859C50.5031 100.322 50.3391 100.434 49.7906 100.434H41.7609C41.2125 100.434 41.1047 100.27 41.2125 99.6141L56.7422 45.2391C57.1202 43.7566 57.3045 42.2314 57.2906 40.7016C57.2906 40.3172 57.4547 40.1531 57.7266 40.1531H69.2109C69.5953 40.1531 69.7594 40.2609 69.8672 40.7016L87.2578 99.7078C87.3656 100.144 87.2578 100.42 86.8219 100.42H77.7422C77.3062 100.42 77.0297 100.312 76.9219 99.9516L72.4359 83.4891H54.9375L54.9328 83.4797Z" fill="#FF7F18"/>
</svg>
