<svg width="100" height="100" viewBox="0 0 100 100" fill="none" xmlns="http://www.w3.org/2000/svg">
<path d="M9.89685 10.9906H90.1031V89.0093H9.89685V10.9906Z" fill="#0C0824"/>
<path d="M9.89688 10.9906H90.1031V89.0094H9.89688V10.9906ZM6.25 92.6562H93.75V7.34375H6.25V92.6562ZM65.2406 42.3438C62.3594 42.3438 61.375 43.8031 61.375 45.0063C61.375 46.3188 62.0312 47.2313 65.8969 49.2344C71.6219 52.0063 73.3969 54.6656 73.3969 58.5688C73.3969 64.4031 68.95 67.5375 62.9344 67.5375C60.3526 67.6332 57.7866 67.0968 55.4594 65.975C55.2031 65.8656 55.1687 65.6844 55.1687 65.3906V60.025C55.1687 59.6594 55.35 59.55 55.6063 59.7344C57.7919 61.1398 60.3359 61.8862 62.9344 61.8844C65.8156 61.8844 67.0187 60.6812 67.0187 59.0406C67.0187 57.7281 66.1813 56.5625 62.4969 54.6656C57.3188 52.1875 55.1687 49.6656 55.1687 45.4781C55.1687 40.775 58.85 36.875 65.2313 36.875C67.4525 36.7796 69.6705 37.127 71.7562 37.8969C71.8764 37.9748 71.9735 38.0834 72.0378 38.2114C72.1021 38.3393 72.1311 38.4821 72.1219 38.625V43.625C72.1219 43.9156 71.9406 44.1 71.575 43.9906C69.6474 42.8809 67.4552 42.314 65.2313 42.35L65.2406 42.3438ZM33.8844 46.6812C34.7219 46.7531 35.3781 46.7531 36.8375 46.7531C41.1031 46.7531 45.1125 45.2594 45.1125 39.4625C45.1125 34.8312 42.2313 32.5 37.3844 32.5C35.925 32.5 34.5406 32.5719 33.8844 32.6094V46.6812ZM27.3937 27.3063C27.3937 27.05 27.9031 26.8687 28.1969 26.8687C31.3306 26.7407 34.4668 26.6803 37.6031 26.6875C47.7031 26.6875 51.6406 32.2281 51.6406 39.3031C51.6406 48.5625 44.9312 52.5375 36.6937 52.5375C35.3094 52.5375 34.8344 52.4656 33.85 52.4656V66.4656C33.85 66.7562 33.7406 66.9031 33.4125 66.9031H27.8344C27.5437 66.9031 27.3969 66.7937 27.3969 66.4656V27.3219L27.3937 27.3063Z" fill="#31C5F0"/>
</svg>
